<svg xmlns="http://www.w3.org/2000/svg" version="1.1" xmlns:xlink="http://www.w3.org/1999/xlink" xmlns:svgjs="http://svgjs.dev/svgjs" width="1500" height="371" viewBox="0 0 1500 371"><g transform="matrix(1,0,0,1,-0.9090909090909918,0.29966559414936)"><svg viewBox="0 0 396 98" data-background-color="#ffffff" preserveAspectRatio="xMidYMid meet" height="371" width="1500" xmlns="http://www.w3.org/2000/svg" xmlns:xlink="http://www.w3.org/1999/xlink"><g id="tight-bounds" transform="matrix(1,0,0,1,0.2400000000000091,-0.07915694939794093)"><svg viewBox="0 0 395.52 98.1583138987959" height="98.1583138987959" width="395.52"><g><svg viewBox="0 0 667.794817988198 165.73021178214708" height="98.1583138987959" width="395.52"><g><rect width="7.047754425881456" height="143.90467014368775" x="246.77744464639653" y="10.912770819229664" fill="#273ed4" opacity="1" stroke-width="0" stroke="transparent" fill-opacity="1" class="rect-yte-0" data-fill-palette-color="primary" rx="1%" id="yte-0" data-palette-color="#273ed4"></rect></g><g transform="matrix(1,0,0,1,272.27481798819804,22.904826664536976)"><svg viewBox="0 0 395.52 119.92055845307313" height="119.92055845307313" width="395.52"><g id="textblocktransform"><svg viewBox="0 0 395.52 119.92055845307313" height="119.92055845307313" width="395.52" id="textblock"><g><svg viewBox="0 0 395.52 78.15118400820091" height="78.15118400820091" width="395.52"><g transform="matrix(1,0,0,1,0,0)"><svg width="395.52" viewBox="1.61 -36.84 190.51 37.650000000000006" height="78.15118400820091" data-palette-color="#273ed4"><path d="M28.3-9.91L28.3-9.91Q28.3-6.88 27.08-4.94 25.85-3 23.91-1.92 21.97-0.83 19.78-0.42 17.58 0 15.6 0L15.6 0 1.61 0 1.61-2.15 4.25-2.34Q4.79-2.39 5.04-2.73 5.3-3.08 5.3-3.44L5.3-3.44 5.3-30.1Q5.3-30.47 5.04-30.82 4.79-31.18 4.25-31.2L4.25-31.2 1.61-31.4 1.61-33.54 14.99-33.54Q20.97-33.54 23.61-31.4 26.25-29.25 26.25-25.49L26.25-25.49Q26.25-23 25.06-21.44 23.88-19.87 22.2-19.03 20.53-18.19 19.04-17.8L19.04-17.8Q21.29-17.8 23.41-17.05 25.54-16.31 26.92-14.59 28.3-12.87 28.3-9.91ZM20.85-25.15L20.85-25.15Q20.85-28.08 18.93-29.66 17.02-31.25 13.16-31.25L13.16-31.25Q12.38-31.25 11.47-31.18 10.57-31.1 10.3-31.1L10.3-31.1 10.3-18.46Q10.3-18.46 11-18.43 11.69-18.41 12.11-18.41L12.11-18.41Q16.99-18.41 18.92-20.17 20.85-21.92 20.85-25.15ZM22.85-9.5L22.85-9.5Q22.85-12.92 20.81-14.5 18.77-16.09 14.79-16.09L14.79-16.09Q13.99-16.09 12.99-16.02 11.99-15.94 11.22-15.87 10.45-15.8 10.3-15.8L10.3-15.8 10.3-2.59Q10.3-2.59 10.88-2.55 11.45-2.51 12.19-2.48 12.94-2.44 13.4-2.44L13.4-2.44Q18.65-2.44 20.75-4.2 22.85-5.96 22.85-9.5ZM55.73-12.01L55.73-12.01Q55.73-8.47 54.27-5.6 52.81-2.73 50.13-1.06 47.46 0.61 43.8 0.61L43.8 0.61Q40.16 0.61 37.5-1.05 34.84-2.71 33.4-5.57 31.96-8.42 31.96-12.01L31.96-12.01Q31.96-15.58 33.41-18.46 34.86-21.34 37.56-23.02 40.26-24.71 43.94-24.71L43.94-24.71Q47.68-24.71 50.31-23 52.95-21.29 54.34-18.41 55.73-15.53 55.73-12.01ZM50.53-12.06L50.53-12.06Q50.53-14.79 49.81-17.16 49.09-19.53 47.62-21 46.14-22.46 43.89-22.46L43.89-22.46Q41.57-22.46 40.1-21 38.62-19.53 37.91-17.16 37.2-14.79 37.2-12.06L37.2-12.06Q37.2-9.35 37.92-6.97 38.64-4.59 40.12-3.13 41.6-1.66 43.85-1.66L43.85-1.66Q46.14-1.66 47.62-3.13 49.09-4.59 49.81-6.96 50.53-9.33 50.53-12.06ZM82.93-12.01L82.93-12.01Q82.93-8.47 81.46-5.6 80-2.73 77.33-1.06 74.65 0.61 70.99 0.61L70.99 0.61Q67.35 0.61 64.69-1.05 62.03-2.71 60.59-5.57 59.15-8.42 59.15-12.01L59.15-12.01Q59.15-15.58 60.6-18.46 62.06-21.34 64.75-23.02 67.45-24.71 71.14-24.71L71.14-24.71Q74.87-24.71 77.51-23 80.15-21.29 81.54-18.41 82.93-15.53 82.93-12.01ZM77.73-12.06L77.73-12.06Q77.73-14.79 77.01-17.16 76.29-19.53 74.81-21 73.33-22.46 71.09-22.46L71.09-22.46Q68.77-22.46 67.29-21 65.82-19.53 65.11-17.16 64.4-14.79 64.4-12.06L64.4-12.06Q64.4-9.35 65.12-6.97 65.84-4.59 67.32-3.13 68.79-1.66 71.04-1.66L71.04-1.66Q73.33-1.66 74.81-3.13 76.29-4.59 77.01-6.96 77.73-9.33 77.73-12.06ZM110.83-1.95L110.83 0 102.82 0 102.82-1.95 96.57-11.35 93.79-11.35 93.79-3.2Q93.79-2.17 94.84-2.1L94.84-2.1 96.99-1.95 96.99 0 85.64 0 85.64-1.95 88.08-2.1Q89.13-2.17 89.13-3.2L89.13-3.2 89.13-33.25 85.34-33.25 85.34-34.91 91.74-36.84 93.79-36.84 93.79-12.79 94.79-12.79 102.14-21.09Q102.24-21.22 102.24-21.41L102.24-21.41Q102.24-21.9 101.73-21.95L101.73-21.95 99.68-22.14 99.68-24.1 109.39-24.1 109.39-22.14 106.19-21.8 99.58-14.75 108.2-2.25 110.83-1.95ZM135.76-12.72L135.76-9.01 132.31-9.01 132.31 0.29 127.5 0.29 127.5-9.01 113.91-9.01 113.91-12.99 128.04-30.81 132.31-30.81 132.31-12.72 135.76-12.72ZM116.4-12.72L127.5-12.72 127.5-26.12 128.58-25.9 117.08-11.43 116.4-12.72ZM172.59-33.54L172.59-31.4 169.69-31.2Q169.15-31.18 168.9-30.82 168.64-30.47 168.64-30.1L168.64-30.1 168.64-11.11Q168.64-4.96 165.36-2.08 162.07 0.81 155.8 0.81L155.8 0.81Q149.62 0.81 146.61-2.21 143.59-5.22 143.59-11.11L143.59-11.11 143.59-30.1Q143.59-30.47 143.33-30.82 143.08-31.18 142.54-31.2L142.54-31.2 139.88-31.4 139.88-33.54 152.6-33.54 152.6-31.4 149.74-31.2Q149.21-31.18 148.95-30.82 148.69-30.47 148.69-30.1L148.69-30.1 148.69-12.4Q148.69-9.47 149.35-7.25 150.01-5.03 151.84-3.78 153.67-2.54 157.14-2.54L157.14-2.54Q160.61-2.54 162.45-3.85 164.29-5.15 164.99-7.4 165.69-9.64 165.69-12.4L165.69-12.4 165.69-30.1Q165.69-30.47 165.4-30.82 165.12-31.18 164.59-31.2L164.59-31.2 161.73-31.4 161.73-33.54 172.59-33.54ZM192.12-7.25L192.12-7.25Q192.12-3.56 189.58-1.48 187.05 0.61 182.58 0.61L182.58 0.61Q180.28 0.61 178.34 0.13 176.4-0.34 175.64-0.66L175.64-0.66 175.64-7.3 178.18-7.3 178.79-3.05Q179.55-2.56 180.66-2.11 181.77-1.66 183.24-1.66L183.24-1.66Q185.39-1.66 186.56-2.86 187.73-4.05 187.73-5.54L187.73-5.54Q187.73-7.52 186.31-8.53 184.9-9.55 182.28-10.79L182.28-10.79 181.63-11.11Q178.89-12.4 177.44-13.81 175.99-15.21 175.99-17.46L175.99-17.46Q175.99-20.8 178.33-22.75 180.67-24.71 184.99-24.71L184.99-24.71Q187.19-24.71 188.91-24.3 190.63-23.9 191.39-23.56L191.39-23.56 191.39-17.65 188.78-17.65 188.39-21.14Q187.85-21.56 186.8-21.92 185.75-22.29 184.58-22.29L184.58-22.29Q182.53-22.29 181.53-21.35 180.53-20.41 180.53-18.95L180.53-18.95Q180.53-17.26 181.74-16.27 182.94-15.28 186.12-13.84L186.12-13.84Q188.73-12.65 190.43-11.17 192.12-9.69 192.12-7.25Z" opacity="1" transform="matrix(1,0,0,1,0,0)" fill="#273ed4" class="wordmark-text-0" data-fill-palette-color="primary" id="text-0"></path></svg></g></svg></g><g transform="matrix(1,0,0,1,0,96.60080292412096)"><svg viewBox="0 0 375.74399999999997 23.31975552895217" height="23.31975552895217" width="375.74399999999997"><g transform="matrix(1,0,0,1,0,0)"><svg width="375.74399999999997" viewBox="1.25 -39.25 793.47 49.25" height="23.31975552895217" data-palette-color="#273ed4"><path d="M14.7 0.2L14.7 0.2Q13.3 0.2 12.15-0.3 11-0.8 10.45-1.55L10.45-1.55Q11.25-4.2 11.68-7.3 12.1-10.4 12.1-13.45L12.1-13.45Q12.1-17.25 11.4-20.58 10.7-23.9 9.28-25.95 7.85-28 5.6-28L5.6-28Q3.9-28 1.75-26.6L1.75-26.6 1.25-26.8Q1.5-31.1 3.4-33.55 5.3-36 8.2-36L8.2-36Q10.3-36 12.03-34.8 13.75-33.6 15.08-31.6 16.4-29.6 17.38-27.1 18.35-24.6 18.95-22L18.95-22Q20.05-27.15 21.8-30.28 23.55-33.4 25.55-34.83 27.55-36.25 29.4-36.25L29.4-36.25Q31.75-36.25 33.43-34.35 35.1-32.45 35.1-29.45L35.1-29.45Q35.1-27.8 34.5-25.9L34.5-25.9Q33.05-26.7 31.4-26.7L31.4-26.7Q29.25-26.7 27.1-25.43 24.95-24.15 23.18-21.83 21.4-19.5 20.4-16.35L20.4-16.35Q20.55-13.75 20.55-11.85L20.55-11.85Q20.55-9.25 20.25-6.98 19.95-4.7 19.15-1.65L19.15-1.65Q18.2-0.7 17.03-0.25 15.85 0.2 14.7 0.2ZM46.55 0.35L46.55 0.35Q42.8 0.35 40.35-1.15 37.9-2.65 36.72-5.13 35.55-7.6 35.55-10.4L35.55-10.4Q35.55-13.05 36.52-15.7 37.5-18.35 39.37-20.53 41.25-22.7 43.95-24.03 46.65-25.35 50.15-25.35L50.15-25.35Q53.9-25.35 56.32-23.83 58.75-22.3 59.92-19.8 61.1-17.3 61.1-14.45L61.1-14.45Q61.1-11.85 60.15-9.22 59.2-6.6 57.32-4.42 55.45-2.25 52.75-0.95 50.05 0.35 46.55 0.35ZM47.9-3.9L47.9-3.9Q49.25-3.9 50.15-5.3 51.05-6.7 51.5-8.88 51.95-11.05 51.95-13.3L51.95-13.3Q51.95-15.3 51.57-17.07 51.2-18.85 50.45-19.98 49.7-21.1 48.5-21.1L48.5-21.1Q47.2-21.1 46.27-19.7 45.35-18.3 44.9-16.15 44.45-14 44.45-11.7L44.45-11.7Q44.45-9.7 44.82-7.93 45.2-6.15 45.95-5.03 46.7-3.9 47.9-3.9ZM70.65 0.2L70.65 0.2Q68.4 0.2 66.87-1.65 65.34-3.5 65.34-6.6L65.34-6.6Q65.34-8.3 65.75-10.25 66.15-12.2 66.55-13.95L66.55-13.95Q66.9-15.25 67.12-16.38 67.34-17.5 67.34-18.2L67.34-18.2Q67.34-19.1 66.97-19.5 66.59-19.9 66.09-19.9L66.09-19.9Q65.59-19.9 65.09-19.58 64.59-19.25 64.3-18.6L64.3-18.6 63.9-18.75Q63.9-20.8 64.9-22.25 65.9-23.7 67.45-24.45 69-25.2 70.59-25.2L70.59-25.2Q71.9-25.2 73.09-24.68 74.3-24.15 75.07-23.05 75.84-21.95 75.84-20.3L75.84-20.3Q75.84-19.3 75.57-17.9 75.3-16.5 74.95-15L74.95-15Q74.59-13.45 74.27-11.88 73.95-10.3 73.95-9.1L73.95-9.1Q73.95-8 74.3-7.3 74.65-6.6 75.34-6.6L75.34-6.6Q76.65-6.6 78.27-9 79.9-11.4 80.9-15.45L80.9-15.45Q81.09-16.25 81.25-17.15 81.4-18.05 81.4-19L81.4-19Q81.4-19.75 81.3-20.53 81.2-21.3 81-22.1L81-22.1 81-22.45Q81.8-23.8 83.07-24.5 84.34-25.2 85.65-25.2L85.65-25.2Q87.4-25.2 88.8-24 90.2-22.8 90.2-20.5L90.2-20.5Q90.2-19.15 89.7-17.38 89.2-15.6 88.59-13.7L88.59-13.7Q88-11.85 87.5-10.05 87-8.25 87-6.85L87-6.85Q87-4.8 88.45-4.8L88.45-4.8Q88.84-4.8 89.42-5.03 90-5.25 90.5-5.95L90.5-5.95 90.84-5.85Q90.84-4.05 89.87-2.68 88.9-1.3 87.4-0.55 85.9 0.2 84.3 0.2L84.3 0.2Q82.25 0.2 80.62-1.3 79-2.8 79-6.2L79-6.2 79-6.3Q76.95-2.8 74.75-1.3 72.55 0.2 70.65 0.2ZM99.29 0.2L99.29 0.2Q97.49 0.2 96.09-1.28 94.69-2.75 94.69-5.45L94.69-5.45Q94.69-6.75 94.99-8.4 95.29-10.05 95.69-11.78 96.09-13.5 96.39-15.03 96.69-16.55 96.69-17.55L96.69-17.55Q96.69-18.6 96.32-19.23 95.94-19.85 95.34-19.85L95.34-19.85Q94.39-19.85 93.39-18.55L93.39-18.55 93.09-18.75Q93.04-19.55 93.44-20.65 93.84-21.75 94.69-22.78 95.54-23.8 96.87-24.5 98.19-25.2 99.99-25.2L99.99-25.2Q102.64-25.2 103.84-23.68 105.04-22.15 105.04-20L105.04-20Q105.04-19.65 105.02-19.28 104.99-18.9 104.94-18.55L104.94-18.55Q106.74-21.8 108.72-23.53 110.69-25.25 112.39-25.25L112.39-25.25Q113.99-25.25 114.74-24 115.49-22.75 115.49-21L115.49-21Q115.49-19.4 114.87-17.75 114.24-16.1 113.02-15.03 111.79-13.95 110.04-14L110.04-14 109.84-14.1Q109.79-15.4 108.99-16.15 108.19-16.9 107.19-16.9L107.19-16.9Q105.84-16.9 104.67-15.55 103.49-14.2 103.49-11.65L103.49-11.65Q103.49-10.1 103.84-8.3 104.19-6.5 104.19-5.25L104.19-5.25Q104.19-3.75 103.49-2.5 102.79-1.25 101.69-0.53 100.59 0.2 99.29 0.2ZM138.14 10L138.14 10Q135.69 10 134.09 8.55 132.49 7.1 132.49 4.45L132.49 4.45Q132.49 1.6 134.49-2.25L134.49-2.25Q134.14-2.15 133.79-2.1 133.44-2.05 133.09-2.05L133.09-2.05Q130.19-2.05 128.21-4.58 126.24-7.1 126.24-11.6L126.24-11.6Q126.24-15.65 127.81-18.75 129.39-21.85 131.84-23.6 134.29-25.35 136.94-25.35L136.94-25.35Q138.79-25.35 140.29-24.43 141.79-23.5 142.74-21.45L142.74-21.45Q142.79-21.95 142.79-22.35 142.79-22.75 142.79-23.1L142.79-23.1Q142.79-23.95 144.09-24.5 145.39-25.05 146.99-25.05L146.99-25.05Q148.44-25.05 149.69-24.5 150.94-23.95 151.34-22.65L151.34-22.65 151.44-22.35Q150.99-21.95 150.66-19.75 150.34-17.55 149.89-13.65L149.89-13.65Q149.59-11.2 149.14-8.08 148.69-4.95 147.91-1.78 147.14 1.4 145.89 4.08 144.64 6.75 142.74 8.38 140.84 10 138.14 10ZM136.49-7.8L136.49-7.8Q137.94-7.8 139.71-10.18 141.49-12.55 142.54-17L142.54-17Q141.64-18.95 140.71-19.78 139.79-20.6 138.84-20.6L138.84-20.6Q137.59-20.6 136.49-19.35 135.39-18.1 134.71-16.18 134.04-14.25 134.04-12.2L134.04-12.2Q134.04-10.1 134.74-8.95 135.44-7.8 136.49-7.8ZM135.89 4.25L135.89 4.25Q137.59 4.25 139.36 0.93 141.14-2.4 141.84-8.45L141.84-8.45Q138.04-3.3 136.56-0.53 135.09 2.25 135.09 3.4L135.09 3.4Q135.09 4.25 135.89 4.25ZM164.74 0.35L164.74 0.35Q160.99 0.35 158.53-1.15 156.09-2.65 154.91-5.13 153.74-7.6 153.74-10.4L153.74-10.4Q153.74-13.05 154.71-15.7 155.69-18.35 157.56-20.53 159.44-22.7 162.14-24.03 164.84-25.35 168.34-25.35L168.34-25.35Q172.09-25.35 174.51-23.83 176.94-22.3 178.11-19.8 179.29-17.3 179.29-14.45L179.29-14.45Q179.29-11.85 178.34-9.22 177.39-6.6 175.51-4.42 173.64-2.25 170.94-0.95 168.24 0.35 164.74 0.35ZM166.09-3.9L166.09-3.9Q167.44-3.9 168.34-5.3 169.24-6.7 169.69-8.88 170.14-11.05 170.14-13.3L170.14-13.3Q170.14-15.3 169.76-17.07 169.39-18.85 168.64-19.98 167.89-21.1 166.69-21.1L166.69-21.1Q165.39-21.1 164.46-19.7 163.53-18.3 163.09-16.15 162.64-14 162.64-11.7L162.64-11.7Q162.64-9.7 163.01-7.93 163.39-6.15 164.14-5.03 164.89-3.9 166.09-3.9ZM183.48-10.65L183.48-10.65Q183.18-11.3 183.06-11.93 182.93-12.55 182.93-13.1L182.93-13.1Q182.93-15.05 184.28-16.32 185.63-17.6 187.93-17.6L187.93-17.6Q190.13-17.6 192.31-17.43 194.48-17.25 196.33-17.25L196.33-17.25Q197.73-17.25 198.86-17.43 199.98-17.6 200.68-18.1L200.68-18.1Q201.58-16.45 201.58-15L201.58-15Q201.58-13.3 200.33-12.2 199.08-11.1 196.43-11.1L196.43-11.1Q193.68-11.1 191.58-11.18 189.48-11.25 187.83-11.25L187.83-11.25Q186.48-11.25 185.41-11.15 184.33-11.05 183.48-10.65ZM211.93 0.2L211.93 0.2Q210.33 0.2 208.91-0.53 207.48-1.25 206.61-2.8 205.73-4.35 205.73-6.75L205.73-6.75Q205.73-8.05 205.98-10.15 206.23-12.25 206.66-14.75 207.08-17.25 207.53-19.75L207.53-19.75Q206.53-19.7 205.61-19.55 204.68-19.4 203.78-19.2L203.78-19.2 203.68-19.55Q204.68-20.75 205.78-21.6 206.88-22.45 208.08-23L208.08-23Q208.73-26.3 209.18-28.73 209.63-31.15 209.63-31.6L209.63-31.6Q209.63-32.45 210.96-33 212.28-33.55 213.93-33.55L213.93-33.55Q215.38-33.55 216.66-33 217.93-32.45 218.38-31.15L218.38-31.15Q218.08-30.85 217.53-28.93 216.98-27 216.38-24.25L216.38-24.25Q217.33-24.2 218.33-24.15 219.33-24.1 220.38-24L220.38-24Q220.48-23.7 220.53-23.35 220.58-23 220.58-22.6L220.58-22.6Q220.58-21.85 220.36-20.98 220.13-20.1 219.83-19.4L219.83-19.4Q218.63-19.5 217.58-19.63 216.53-19.75 215.53-19.8L215.53-19.8Q215.13-17.65 214.81-15.5 214.48-13.35 214.31-11.6 214.13-9.85 214.13-8.85L214.13-8.85Q214.13-6.75 214.91-6.05 215.68-5.35 216.78-5.35L216.78-5.35Q217.78-5.35 218.58-5.75 219.38-6.15 219.73-6.7L219.73-6.7 220.23-6.55Q219.93-4.5 218.63-2.98 217.33-1.45 215.53-0.63 213.73 0.2 211.93 0.2ZM233.38 0.35L233.38 0.35Q229.63 0.35 227.18-1.15 224.73-2.65 223.55-5.13 222.38-7.6 222.38-10.4L222.38-10.4Q222.38-13.05 223.35-15.7 224.33-18.35 226.2-20.53 228.08-22.7 230.78-24.03 233.48-25.35 236.98-25.35L236.98-25.35Q240.73-25.35 243.15-23.83 245.58-22.3 246.75-19.8 247.93-17.3 247.93-14.45L247.93-14.45Q247.93-11.85 246.98-9.22 246.03-6.6 244.15-4.42 242.28-2.25 239.58-0.95 236.88 0.35 233.38 0.35ZM234.73-3.9L234.73-3.9Q236.08-3.9 236.98-5.3 237.88-6.7 238.33-8.88 238.78-11.05 238.78-13.3L238.78-13.3Q238.78-15.3 238.4-17.07 238.03-18.85 237.28-19.98 236.53-21.1 235.33-21.1L235.33-21.1Q234.03-21.1 233.1-19.7 232.18-18.3 231.73-16.15 231.28-14 231.28-11.7L231.28-11.7Q231.28-9.7 231.65-7.93 232.03-6.15 232.78-5.03 233.53-3.9 234.73-3.9ZM268.32 0.45L268.32 0.45Q265.22 0.45 263.17-0.4 261.12-1.25 260.12-2.58 259.12-3.9 259.12-5.25L259.12-5.25Q259.12-7.15 260.82-8.63 262.52-10.1 265.42-10.1L265.42-10.1Q265.42-7.55 266.07-6.03 266.72-4.5 267.75-3.85 268.77-3.2 269.72-3.2L269.72-3.2Q270.87-3.2 271.65-3.88 272.42-4.55 272.42-5.55L272.42-5.55Q272.42-6.95 270.97-8 269.52-9.05 267.22-10.35L267.22-10.35Q266.07-11.05 264.72-11.98 263.37-12.9 262.42-14.23 261.47-15.55 261.47-17.4L261.47-17.4Q261.47-19.35 262.6-20.85 263.72-22.35 265.57-23.38 267.42-24.4 269.57-24.93 271.72-25.45 273.77-25.45L273.77-25.45Q277.62-25.45 279.57-23.9 281.52-22.35 281.52-20.6L281.52-20.6Q281.52-19.1 280.02-17.9 278.52-16.7 275.42-16.7L275.42-16.7Q275.47-19.25 274.37-20.43 273.27-21.6 272.02-21.6L272.02-21.6Q271.12-21.6 270.52-21.05 269.92-20.5 269.92-19.45L269.92-19.45Q269.92-18.25 270.7-17.38 271.47-16.5 272.65-15.83 273.82-15.15 275.07-14.55L275.07-14.55Q276.77-13.75 278.27-12.85 279.77-11.95 280.72-10.8 281.67-9.65 281.67-8L281.67-8Q281.67-5.75 279.85-3.83 278.02-1.9 274.97-0.73 271.92 0.45 268.32 0.45ZM295.32 0.35L295.32 0.35Q291.67 0.35 289.27-1.13 286.87-2.6 285.67-5.03 284.47-7.45 284.47-10.25L284.47-10.25Q284.47-12.9 285.5-15.58 286.52-18.25 288.5-20.45 290.47-22.65 293.3-24 296.12-25.35 299.67-25.35L299.67-25.35Q304.07-25.35 306.1-23.38 308.12-21.4 308.12-18.6L308.12-18.6Q308.12-16.2 306.85-14.18 305.57-12.15 303.47-10.93 301.37-9.7 298.87-9.7L298.87-9.7Q297.57-9.7 296.22-10.1 294.87-10.5 293.57-11.35L293.57-11.35Q293.82-8.25 295.37-6.85 296.92-5.45 299.07-5.45L299.07-5.45Q300.57-5.45 302.07-6.03 303.57-6.6 304.85-7.53 306.12-8.45 306.82-9.5L306.82-9.5 307.17-9.25Q307.17-6.65 306.1-4.83 305.02-3 303.27-1.85 301.52-0.7 299.45-0.18 297.37 0.35 295.32 0.35ZM296.47-13.15L296.47-13.15Q298.07-13.15 299.07-14.08 300.07-15 300.57-16.25 301.07-17.5 301.07-18.45L301.07-18.45Q301.07-19.6 300.42-20.38 299.77-21.15 298.62-21.15L298.62-21.15Q297.72-21.15 296.65-20.5 295.57-19.85 294.72-18.28 293.87-16.7 293.62-13.9L293.62-13.9Q295.22-13.15 296.47-13.15ZM320.27 0.35L320.27 0.35Q316.97 0.35 314.69-1.15 312.42-2.65 311.27-5.08 310.12-7.5 310.12-10.3L310.12-10.3Q310.12-12.95 311.14-15.6 312.17-18.25 314.17-20.48 316.17-22.7 319.04-24.03 321.92-25.35 325.67-25.35L325.67-25.35Q329.37-25.35 331.17-23.88 332.97-22.4 332.97-20.65L332.97-20.65Q332.97-18.8 331.12-17.25 329.27-15.7 325.72-15.7L325.72-15.7Q325.92-16.45 326.04-17.23 326.17-18 326.17-18.7L326.17-18.7Q326.17-19.75 325.72-20.48 325.27-21.2 324.12-21.2L324.12-21.2Q323.07-21.2 321.89-20.25 320.72-19.3 319.89-17.45 319.07-15.6 319.07-12.9L319.07-12.9Q319.07-10.25 319.94-8.6 320.82-6.95 322.22-6.23 323.62-5.5 325.17-5.5L325.17-5.5Q327.22-5.5 329.12-6.58 331.02-7.65 331.87-9.55L331.87-9.55 332.37-9.35Q332.37-6.75 331.19-4.93 330.02-3.1 328.17-1.93 326.32-0.75 324.22-0.2 322.12 0.35 320.27 0.35ZM345.97 0.35L345.97 0.35Q342.22 0.35 339.77-1.15 337.32-2.65 336.14-5.13 334.97-7.6 334.97-10.4L334.97-10.4Q334.97-13.05 335.94-15.7 336.92-18.35 338.79-20.53 340.67-22.7 343.37-24.03 346.07-25.35 349.57-25.35L349.57-25.35Q353.32-25.35 355.74-23.83 358.17-22.3 359.34-19.8 360.52-17.3 360.52-14.45L360.52-14.45Q360.52-11.85 359.57-9.22 358.62-6.6 356.74-4.42 354.87-2.25 352.17-0.95 349.47 0.35 345.97 0.35ZM347.32-3.9L347.32-3.9Q348.67-3.9 349.57-5.3 350.47-6.7 350.92-8.88 351.37-11.05 351.37-13.3L351.37-13.3Q351.37-15.3 350.99-17.07 350.62-18.85 349.87-19.98 349.12-21.1 347.92-21.1L347.92-21.1Q346.62-21.1 345.69-19.7 344.77-18.3 344.32-16.15 343.87-14 343.87-11.7L343.87-11.7Q343.87-9.7 344.24-7.93 344.62-6.15 345.37-5.03 346.12-3.9 347.32-3.9ZM369.26 0.15L369.26 0.15Q367.41 0.15 365.91-1.33 364.41-2.8 364.41-5.45L364.41-5.45Q364.41-6.75 364.76-8.4 365.11-10.05 365.54-11.75 365.96-13.45 366.31-14.95 366.66-16.45 366.66-17.4L366.66-17.4Q366.66-18.4 366.26-18.98 365.86-19.55 365.21-19.55L365.21-19.55Q364.36-19.55 363.36-18.55L363.36-18.55 363.06-18.75Q363.01-19.55 363.41-20.65 363.81-21.75 364.64-22.78 365.46-23.8 366.76-24.5 368.06-25.2 369.86-25.2L369.86-25.2Q372.51-25.2 373.79-23.68 375.06-22.15 375.06-19.95L375.06-19.95Q375.06-19.15 374.91-18.4L374.91-18.4Q375.96-19.95 377.51-21.53 379.06-23.1 380.94-24.15 382.81-25.2 384.81-25.2L384.81-25.2Q387.16-25.2 388.01-23.7 388.86-22.2 388.86-19.95L388.86-19.95Q388.86-17.85 388.41-15.45 387.96-13.05 387.51-10.83 387.06-8.6 387.06-7.1L387.06-7.1Q387.06-5.1 388.21-5.1L388.21-5.1Q388.81-5.1 389.26-5.48 389.71-5.85 389.86-6.2L389.86-6.2 390.21-6.05Q390.21-4.2 389.19-2.8 388.16-1.4 386.61-0.63 385.06 0.15 383.46 0.15L383.46 0.15Q381.51 0.15 380.01-1.2 378.51-2.55 378.51-5.6L378.51-5.6Q378.51-7.4 378.99-9.5 379.46-11.6 379.91-13.55 380.36-15.5 380.36-16.75L380.36-16.75Q380.36-17.5 380.09-17.93 379.81-18.35 379.11-18.35L379.11-18.35Q377.96-18.35 376.59-17.3 375.21-16.25 374.24-14.5 373.26-12.75 373.26-10.65L373.26-10.65Q373.26-9.3 373.59-8.05 373.91-6.8 373.91-5.35L373.91-5.35Q373.91-2.65 372.51-1.25 371.11 0.15 369.26 0.15ZM400.01 0.2L400.01 0.2Q398.21 0.2 396.64-1.05 395.06-2.3 394.09-4.7 393.11-7.1 393.11-10.5L393.11-10.5Q393.11-14 394.11-16.75 395.11-19.5 396.74-21.43 398.36-23.35 400.29-24.35 402.21-25.35 404.06-25.35L404.06-25.35Q406.11-25.35 407.71-24.08 409.31-22.8 409.91-20.1L409.91-20.1Q410.36-22.6 410.69-24.88 411.01-27.15 411.01-28.9L411.01-28.9Q411.01-31.2 410.41-32.25L410.41-32.25 410.41-32.55Q411.56-33.85 412.94-34.48 414.31-35.1 415.56-35.1L415.56-35.1Q417.21-35.1 418.36-34.08 419.51-33.05 419.51-31.15L419.51-31.15Q419.51-30.1 419.16-28.05 418.81-26 418.31-23.38 417.81-20.75 417.29-17.98 416.76-15.2 416.41-12.68 416.06-10.15 416.06-8.3L416.06-8.3Q416.06-6.75 416.39-5.83 416.71-4.9 417.46-4.9L417.46-4.9Q418.01-4.9 418.59-5.28 419.16-5.65 419.36-6.15L419.36-6.15 419.71-5.9Q419.71-4.25 418.66-2.88 417.61-1.5 416.01-0.65 414.41 0.2 412.71 0.2L412.71 0.2Q410.86 0.2 409.79-0.83 408.71-1.85 408.26-3.45 407.81-5.05 407.76-6.75L407.76-6.75Q406.21-3.15 404.14-1.48 402.06 0.2 400.01 0.2ZM403.36-6.15L403.36-6.15Q404.66-6.15 406.26-8.5 407.86-10.85 409.06-15.35L409.06-15.35 409.36-16.9Q408.56-18.75 407.64-19.53 406.71-20.3 405.86-20.3L405.86-20.3Q404.61-20.3 403.51-18.93 402.41-17.55 401.74-15.43 401.06-13.3 401.06-10.95L401.06-10.95Q401.06-8.7 401.71-7.43 402.36-6.15 403.36-6.15ZM426.96 0.2L426.96 0.2Q424.81 0.2 423.51-1.25 422.21-2.7 422.21-5.2L422.21-5.2Q422.21-6.55 422.56-8.72 422.91-10.9 423.43-13.53 423.96-16.15 424.46-18.88 424.96-21.6 425.31-24.15 425.66-26.7 425.66-28.65L425.66-28.65Q425.66-31.1 425.01-32.2L425.01-32.2 425.01-32.5Q426.11-33.75 427.41-34.35 428.71-34.95 429.96-34.95L429.96-34.95Q431.86-34.95 433.21-33.6 434.56-32.25 434.56-29.55L434.56-29.55Q434.56-28.1 434.16-26 433.76-23.9 433.21-21.6 432.66-19.3 432.11-17.3L432.11-17.3Q433.06-19.15 434.63-20.98 436.21-22.8 438.23-24 440.26-25.2 442.46-25.2L442.46-25.2Q444.96-25.2 445.83-23.65 446.71-22.1 446.71-19.8L446.71-19.8Q446.71-17.7 446.26-15.33 445.81-12.95 445.36-10.78 444.91-8.6 444.91-7.15L444.91-7.15Q444.91-5.05 446.16-5.05L446.16-5.05Q446.71-5.05 447.13-5.38 447.56-5.7 447.76-6.1L447.76-6.1 448.11-5.85Q448.11-3.9 447.16-2.55 446.21-1.2 444.73-0.5 443.26 0.2 441.71 0.2L441.71 0.2Q439.66 0.2 438.01-1.18 436.36-2.55 436.36-5.65L436.36-5.65Q436.36-7.4 436.83-9.45 437.31-11.5 437.76-13.43 438.21-15.35 438.21-16.65L438.21-16.65Q438.21-18.35 437.01-18.35L437.01-18.35Q435.91-18.35 434.61-17.25 433.31-16.15 432.33-14.5 431.36-12.85 431.06-11.25L431.06-11.25Q430.96-10.85 430.96-10.3L430.96-10.3Q430.96-9.05 431.33-7.9 431.71-6.75 431.71-5.2L431.71-5.2Q431.71-2.9 430.51-1.35 429.31 0.2 426.96 0.2ZM468.96 0.25L468.96 0.25Q467.21 0.25 465.91-0.9 464.61-2.05 464.61-4.65L464.61-4.65Q464.61-4.9 464.61-5.15 464.61-5.4 464.66-5.65L464.66-5.65Q463.16-2.65 461.28-1.23 459.41 0.2 457.51 0.2L457.51 0.2Q455.76 0.2 454.21-1.03 452.66-2.25 451.71-4.65 450.76-7.05 450.76-10.45L450.76-10.45Q450.76-13.95 451.73-16.7 452.71-19.45 454.31-21.35 455.91-23.25 457.81-24.23 459.71-25.2 461.51-25.2L461.51-25.2Q463.51-25.2 465.11-23.98 466.71-22.75 467.31-20.1L467.31-20.1Q467.46-20.95 467.53-21.65 467.61-22.35 467.61-22.6L467.61-22.6Q467.66-23.95 468.98-24.6 470.31-25.25 471.91-25.25L471.91-25.25Q473.31-25.25 474.56-24.7 475.81-24.15 476.26-22.85L476.26-22.85 476.36-22.55Q475.76-21.2 475.16-19.3 474.56-17.4 474.06-15.33 473.56-13.25 473.26-11.28 472.96-9.3 472.96-7.8L472.96-7.8Q472.96-6.15 473.31-5.53 473.66-4.9 474.16-4.9L474.16-4.9Q475.01-4.9 475.71-6.1L475.71-6.1 476.11-5.9Q476.11-4.2 475.01-2.8 473.91-1.4 472.26-0.58 470.61 0.25 468.96 0.25ZM460.81-6.1L460.81-6.1Q462.11-6.1 463.68-8.43 465.26-10.75 466.41-15.1L466.41-15.1Q466.51-15.55 466.61-15.98 466.71-16.4 466.76-16.8L466.76-16.8Q465.96-18.65 465.08-19.43 464.21-20.2 463.36-20.2L463.36-20.2Q462.11-20.2 461.03-18.88 459.96-17.55 459.28-15.55 458.61-13.55 458.61-11.55L458.61-11.55Q458.61-8.8 459.23-7.45 459.86-6.1 460.81-6.1ZM484.8 0.15L484.8 0.15Q482.95 0.15 481.45-1.33 479.95-2.8 479.95-5.45L479.95-5.45Q479.95-6.75 480.3-8.4 480.65-10.05 481.08-11.75 481.5-13.45 481.85-14.95 482.2-16.45 482.2-17.4L482.2-17.4Q482.2-18.4 481.8-18.98 481.4-19.55 480.75-19.55L480.75-19.55Q479.9-19.55 478.9-18.55L478.9-18.55 478.6-18.75Q478.55-19.55 478.95-20.65 479.35-21.75 480.18-22.78 481-23.8 482.3-24.5 483.6-25.2 485.4-25.2L485.4-25.2Q488.05-25.2 489.33-23.68 490.6-22.15 490.6-19.95L490.6-19.95Q490.6-19.15 490.45-18.4L490.45-18.4Q491.5-19.95 493.05-21.53 494.6-23.1 496.48-24.15 498.35-25.2 500.35-25.2L500.35-25.2Q502.7-25.2 503.55-23.7 504.4-22.2 504.4-19.95L504.4-19.95Q504.4-17.85 503.95-15.45 503.5-13.05 503.05-10.83 502.6-8.6 502.6-7.1L502.6-7.1Q502.6-5.1 503.75-5.1L503.75-5.1Q504.35-5.1 504.8-5.48 505.25-5.85 505.4-6.2L505.4-6.2 505.75-6.05Q505.75-4.2 504.73-2.8 503.7-1.4 502.15-0.63 500.6 0.15 499 0.15L499 0.15Q497.05 0.15 495.55-1.2 494.05-2.55 494.05-5.6L494.05-5.6Q494.05-7.4 494.53-9.5 495-11.6 495.45-13.55 495.9-15.5 495.9-16.75L495.9-16.75Q495.9-17.5 495.63-17.93 495.35-18.35 494.65-18.35L494.65-18.35Q493.5-18.35 492.13-17.3 490.75-16.25 489.78-14.5 488.8-12.75 488.8-10.65L488.8-10.65Q488.8-9.3 489.13-8.05 489.45-6.8 489.45-5.35L489.45-5.35Q489.45-2.65 488.05-1.25 486.65 0.15 484.8 0.15ZM515.55 0.2L515.55 0.2Q513.75 0.2 512.18-1.05 510.6-2.3 509.63-4.7 508.65-7.1 508.65-10.5L508.65-10.5Q508.65-14 509.65-16.75 510.65-19.5 512.28-21.43 513.9-23.35 515.83-24.35 517.75-25.35 519.6-25.35L519.6-25.35Q521.65-25.35 523.25-24.08 524.85-22.8 525.45-20.1L525.45-20.1Q525.9-22.6 526.23-24.88 526.55-27.15 526.55-28.9L526.55-28.9Q526.55-31.2 525.95-32.25L525.95-32.25 525.95-32.55Q527.1-33.85 528.48-34.48 529.85-35.1 531.1-35.1L531.1-35.1Q532.75-35.1 533.9-34.08 535.05-33.05 535.05-31.15L535.05-31.15Q535.05-30.1 534.7-28.05 534.35-26 533.85-23.38 533.35-20.75 532.83-17.98 532.3-15.2 531.95-12.68 531.6-10.15 531.6-8.3L531.6-8.3Q531.6-6.75 531.93-5.83 532.25-4.9 533-4.9L533-4.9Q533.55-4.9 534.13-5.28 534.7-5.65 534.9-6.15L534.9-6.15 535.25-5.9Q535.25-4.25 534.2-2.88 533.15-1.5 531.55-0.65 529.95 0.2 528.25 0.2L528.25 0.2Q526.4 0.2 525.33-0.83 524.25-1.85 523.8-3.45 523.35-5.05 523.3-6.75L523.3-6.75Q521.75-3.15 519.68-1.48 517.6 0.2 515.55 0.2ZM518.9-6.15L518.9-6.15Q520.2-6.15 521.8-8.5 523.4-10.85 524.6-15.35L524.6-15.35 524.9-16.9Q524.1-18.75 523.18-19.53 522.25-20.3 521.4-20.3L521.4-20.3Q520.15-20.3 519.05-18.93 517.95-17.55 517.28-15.43 516.6-13.3 516.6-10.95L516.6-10.95Q516.6-8.7 517.25-7.43 517.9-6.15 518.9-6.15ZM559.64 0.2L559.64 0.2Q557.64 0.2 556-0.68 554.35-1.55 553.29-3.25L553.29-3.25Q553.25-2.3 552.6-1.5 551.95-0.7 550.14-0.7L550.14-0.7Q548.14-0.7 547.2-1.8 546.25-2.9 546.25-4.7L546.25-4.7Q546.25-5.8 546.54-7.88 546.85-9.95 547.27-12.55 547.7-15.15 548.12-17.95 548.54-20.75 548.85-23.4 549.14-26.05 549.14-28.15L549.14-28.15Q549.14-29.55 549-30.6 548.85-31.65 548.45-32.25L548.45-32.25 548.45-32.55Q549.6-33.8 550.85-34.43 552.1-35.05 553.25-35.05L553.25-35.05Q554.95-35.05 556.14-33.7 557.35-32.35 557.35-29.4L557.35-29.4Q557.35-27.95 557.04-25.33 556.75-22.7 556.29-20.1L556.29-20.1Q558.1-22.65 560.12-24 562.14-25.35 564.04-25.35L564.04-25.35Q566.6-25.35 568.39-22.93 570.2-20.5 570.2-15.6L570.2-15.6Q570.2-12.7 569.52-9.88 568.85-7.05 567.5-4.78 566.14-2.5 564.17-1.15 562.2 0.2 559.64 0.2ZM557.14-4.85L557.14-4.85Q558.75-4.85 559.87-6.25 561-7.65 561.57-9.83 562.14-12 562.14-14.3L562.14-14.3Q562.14-15.8 561.89-17.18 561.64-18.55 561.14-19.43 560.64-20.3 559.85-20.3L559.85-20.3Q558.45-20.3 556.67-17.03 554.89-13.75 553.89-7.75L553.89-7.75Q554.79-4.85 557.14-4.85ZM583.84 0.35L583.84 0.35Q580.09 0.35 577.64-1.15 575.19-2.65 574.02-5.13 572.84-7.6 572.84-10.4L572.84-10.4Q572.84-13.05 573.82-15.7 574.79-18.35 576.67-20.53 578.54-22.7 581.24-24.03 583.94-25.35 587.44-25.35L587.44-25.35Q591.19-25.35 593.62-23.83 596.04-22.3 597.22-19.8 598.39-17.3 598.39-14.45L598.39-14.45Q598.39-11.85 597.44-9.22 596.49-6.6 594.62-4.42 592.74-2.25 590.04-0.95 587.34 0.35 583.84 0.35ZM585.19-3.9L585.19-3.9Q586.54-3.9 587.44-5.3 588.34-6.7 588.79-8.88 589.24-11.05 589.24-13.3L589.24-13.3Q589.24-15.3 588.87-17.07 588.49-18.85 587.74-19.98 586.99-21.1 585.79-21.1L585.79-21.1Q584.49-21.1 583.57-19.7 582.64-18.3 582.19-16.15 581.74-14 581.74-11.7L581.74-11.7Q581.74-9.7 582.12-7.93 582.49-6.15 583.24-5.03 583.99-3.9 585.19-3.9ZM612.19 0.35L612.19 0.35Q608.44 0.35 605.99-1.15 603.54-2.65 602.37-5.13 601.19-7.6 601.19-10.4L601.19-10.4Q601.19-13.05 602.16-15.7 603.14-18.35 605.01-20.53 606.89-22.7 609.59-24.03 612.29-25.35 615.79-25.35L615.79-25.35Q619.54-25.35 621.96-23.83 624.39-22.3 625.56-19.8 626.74-17.3 626.74-14.45L626.74-14.45Q626.74-11.85 625.79-9.22 624.84-6.6 622.96-4.42 621.09-2.25 618.39-0.95 615.69 0.35 612.19 0.35ZM613.54-3.9L613.54-3.9Q614.89-3.9 615.79-5.3 616.69-6.7 617.14-8.88 617.59-11.05 617.59-13.3L617.59-13.3Q617.59-15.3 617.21-17.07 616.84-18.85 616.09-19.98 615.34-21.1 614.14-21.1L614.14-21.1Q612.84-21.1 611.91-19.7 610.99-18.3 610.54-16.15 610.09-14 610.09-11.7L610.09-11.7Q610.09-9.7 610.46-7.93 610.84-6.15 611.59-5.03 612.34-3.9 613.54-3.9ZM648.14 0.25L648.14 0.25Q646.49 0.25 645.04-0.53 643.59-1.3 642.69-2.8 641.79-4.3 641.79-6.4L641.79-6.4Q641.79-8.55 642.84-11.25L642.84-11.25Q643.64-11.65 644.74-12.5 645.84-13.35 646.69-14.43 647.54-15.5 647.54-16.55L647.54-16.55Q647.54-17.5 646.81-18.05 646.09-18.6 645.04-18.6L645.04-18.6Q643.74-18.6 642.59-17.8 641.44-17 640.56-15.73 639.69-14.45 639.21-12.98 638.74-11.5 638.74-10.15L638.74-10.15Q638.74-8.85 639.06-7.73 639.39-6.6 639.39-5.15L639.39-5.15Q639.39-2.9 638.19-1.35 636.99 0.2 634.64 0.2L634.64 0.2Q632.49 0.2 631.19-1.25 629.89-2.7 629.89-5.2L629.89-5.2Q629.89-6.5 630.21-8.65 630.54-10.8 631.04-13.4 631.54-16 632.01-18.78 632.49-21.55 632.81-24.13 633.14-26.7 633.14-28.75L633.14-28.75Q633.14-29.85 633.01-30.78 632.89-31.7 632.49-32.25L632.49-32.25 632.49-32.55Q633.59-33.8 634.89-34.4 636.19-35 637.44-35L637.44-35Q639.34-35 640.69-33.65 642.04-32.3 642.04-29.65L642.04-29.65Q642.04-28.25 641.66-26.25 641.29-24.25 640.76-22.05 640.24-19.85 639.69-17.85L639.69-17.85Q640.79-19.45 642.19-21.15 643.59-22.85 645.34-24.03 647.09-25.2 649.29-25.2L649.29-25.2Q651.84-25.2 653.29-23.58 654.74-21.95 654.74-19.7L654.74-19.7Q654.74-17.45 653.11-14.9 651.49-12.35 647.69-10.6L647.69-10.6Q648.34-9.15 649.49-8 650.64-6.85 652.01-6.23 653.39-5.6 654.59-5.6L654.59-5.6Q655.19-5.6 655.64-5.8L655.64-5.8 655.94-5.5Q654.69-2.6 652.51-1.18 650.34 0.25 648.14 0.25ZM674.93 0.45L674.93 0.45Q671.83 0.45 669.78-0.4 667.73-1.25 666.73-2.58 665.73-3.9 665.73-5.25L665.73-5.25Q665.73-7.15 667.43-8.63 669.13-10.1 672.03-10.1L672.03-10.1Q672.03-7.55 672.68-6.03 673.33-4.5 674.36-3.85 675.38-3.2 676.33-3.2L676.33-3.2Q677.48-3.2 678.26-3.88 679.03-4.55 679.03-5.55L679.03-5.55Q679.03-6.95 677.58-8 676.13-9.05 673.83-10.35L673.83-10.35Q672.68-11.05 671.33-11.98 669.98-12.9 669.03-14.23 668.08-15.55 668.08-17.4L668.08-17.4Q668.08-19.35 669.21-20.85 670.33-22.35 672.18-23.38 674.03-24.4 676.18-24.93 678.33-25.45 680.38-25.45L680.38-25.45Q684.23-25.45 686.18-23.9 688.13-22.35 688.13-20.6L688.13-20.6Q688.13-19.1 686.63-17.9 685.13-16.7 682.03-16.7L682.03-16.7Q682.08-19.25 680.98-20.43 679.88-21.6 678.63-21.6L678.63-21.6Q677.73-21.6 677.13-21.05 676.53-20.5 676.53-19.45L676.53-19.45Q676.53-18.25 677.31-17.38 678.08-16.5 679.26-15.83 680.43-15.15 681.68-14.55L681.68-14.55Q683.38-13.75 684.88-12.85 686.38-11.95 687.33-10.8 688.28-9.65 688.28-8L688.28-8Q688.28-5.75 686.46-3.83 684.63-1.9 681.58-0.73 678.53 0.45 674.93 0.45ZM696.18 0.2L696.18 0.2Q694.03 0.2 692.73-1.25 691.43-2.7 691.43-5.2L691.43-5.2Q691.43-6.55 691.78-8.72 692.13-10.9 692.65-13.53 693.18-16.15 693.68-18.88 694.18-21.6 694.53-24.15 694.88-26.7 694.88-28.65L694.88-28.65Q694.88-31.1 694.23-32.2L694.23-32.2 694.23-32.5Q695.33-33.75 696.63-34.35 697.93-34.95 699.18-34.95L699.18-34.95Q701.08-34.95 702.43-33.6 703.78-32.25 703.78-29.55L703.78-29.55Q703.78-28.1 703.38-26 702.98-23.9 702.43-21.6 701.88-19.3 701.33-17.3L701.33-17.3Q702.28-19.15 703.85-20.98 705.43-22.8 707.45-24 709.48-25.2 711.68-25.2L711.68-25.2Q714.18-25.2 715.05-23.65 715.93-22.1 715.93-19.8L715.93-19.8Q715.93-17.7 715.48-15.33 715.03-12.95 714.58-10.78 714.13-8.6 714.13-7.15L714.13-7.15Q714.13-5.05 715.38-5.05L715.38-5.05Q715.93-5.05 716.35-5.38 716.78-5.7 716.98-6.1L716.98-6.1 717.33-5.85Q717.33-3.9 716.38-2.55 715.43-1.2 713.95-0.5 712.48 0.2 710.93 0.2L710.93 0.2Q708.88 0.2 707.23-1.18 705.58-2.55 705.58-5.65L705.58-5.65Q705.58-7.4 706.05-9.45 706.53-11.5 706.98-13.43 707.43-15.35 707.43-16.65L707.43-16.65Q707.43-18.35 706.23-18.35L706.23-18.35Q705.13-18.35 703.83-17.25 702.53-16.15 701.55-14.5 700.58-12.85 700.28-11.25L700.28-11.25Q700.18-10.85 700.18-10.3L700.18-10.3Q700.18-9.05 700.55-7.9 700.93-6.75 700.93-5.2L700.93-5.2Q700.93-2.9 699.73-1.35 698.53 0.2 696.18 0.2ZM730.88 0.35L730.88 0.35Q727.13 0.35 724.68-1.15 722.23-2.65 721.05-5.13 719.88-7.6 719.88-10.4L719.88-10.4Q719.88-13.05 720.85-15.7 721.83-18.35 723.7-20.53 725.58-22.7 728.28-24.03 730.98-25.35 734.48-25.35L734.48-25.35Q738.23-25.35 740.65-23.83 743.08-22.3 744.25-19.8 745.43-17.3 745.43-14.45L745.43-14.45Q745.43-11.85 744.48-9.22 743.53-6.6 741.65-4.42 739.78-2.25 737.08-0.95 734.38 0.35 730.88 0.35ZM732.23-3.9L732.23-3.9Q733.58-3.9 734.48-5.3 735.38-6.7 735.83-8.88 736.28-11.05 736.28-13.3L736.28-13.3Q736.28-15.3 735.9-17.07 735.53-18.85 734.78-19.98 734.03-21.1 732.83-21.1L732.83-21.1Q731.53-21.1 730.6-19.7 729.68-18.3 729.23-16.15 728.78-14 728.78-11.7L728.78-11.7Q728.78-9.7 729.15-7.93 729.53-6.15 730.28-5.03 731.03-3.9 732.23-3.9ZM752.92 10L752.92 10Q751.67 10 750.55 9.35 749.42 8.7 748.7 7.25 747.97 5.8 747.97 3.35L747.97 3.35Q747.97 1 748.6-1.75 749.22-4.5 750.02-7.28 750.82-10.05 751.45-12.55 752.07-15.05 752.07-17L752.07-17Q752.07-18.45 751.67-18.98 751.27-19.5 750.72-19.5L750.72-19.5Q750.22-19.5 749.72-19.2 749.22-18.9 748.87-18.5L748.87-18.5 748.52-18.7Q748.52-20.45 749.55-21.93 750.57-23.4 752.17-24.3 753.77-25.2 755.47-25.2L755.47-25.2Q757.12-25.2 758.12-24.38 759.12-23.55 759.65-22.25 760.17-20.95 760.27-19.45L760.27-19.45Q762.17-22.45 764.42-23.9 766.67-25.35 768.67-25.35L768.67-25.35Q771.37-25.35 773.25-22.8 775.12-20.25 775.12-14.9L775.12-14.9Q775.12-9.9 773.52-6.53 771.92-3.15 769.5-1.48 767.07 0.2 764.57 0.2L764.57 0.2Q762.42 0.2 760.6-1.07 758.77-2.35 757.77-4.8L757.77-4.8Q757.32-2.75 757-0.75 756.67 1.25 756.67 3.15L756.67 3.15Q756.67 4.2 756.8 5.2 756.92 6.2 757.22 7.2L757.22 7.2 757.22 7.5Q756.57 8.75 755.4 9.38 754.22 10 752.92 10ZM762.12-4.65L762.12-4.65Q763.32-4.65 764.22-5.6 765.12-6.55 765.77-8.08 766.42-9.6 766.75-11.35 767.07-13.1 767.07-14.75L767.07-14.75Q767.07-16.85 766.52-18.32 765.97-19.8 764.82-19.8L764.82-19.8Q763.37-19.8 761.57-16.88 759.77-13.95 758.77-8L758.77-8Q759.22-6.45 760.12-5.55 761.02-4.65 762.12-4.65ZM784.62-11.4L784.62-11.4Q783.52-11.4 782.65-11.83 781.77-12.25 781.62-13.25L781.62-13.25Q781.72-15.45 782.05-18.28 782.37-21.1 782.82-24.05 783.27-27 783.72-29.7 784.17-32.4 784.52-34.43 784.87-36.45 785.02-37.35L785.02-37.35Q785.17-38.15 786.37-38.7 787.57-39.25 789.12-39.25L789.12-39.25Q790.82-39.25 792.45-38.4 794.07-37.55 794.72-35.4L794.72-35.4Q794.02-34.3 792.97-31.9 791.92-29.5 790.87-26.33 789.82-23.15 789.07-19.58 788.32-16 788.17-12.45L788.17-12.45Q787.62-12 786.62-11.7 785.62-11.4 784.62-11.4ZM783.87 0.3L783.87 0.3Q781.77 0.3 780.42-1 779.07-2.3 779.07-4.25L779.07-4.25Q779.07-6.35 780.65-7.88 782.22-9.4 784.47-9.4L784.47-9.4Q786.57-9.4 787.95-8.08 789.32-6.75 789.32-4.8L789.32-4.8Q789.32-2.7 787.72-1.2 786.12 0.3 783.87 0.3Z" opacity="1" transform="matrix(1,0,0,1,0,0)" fill="#273ed4" class="slogan-text-1" data-fill-palette-color="secondary" id="text-1"></path></svg></g></svg></g></svg></g></svg></g><g><svg viewBox="0 0 228.3278257304765 165.73021178214708" height="165.73021178214708" width="228.3278257304765"><g><svg xmlns="http://www.w3.org/2000/svg" xmlns:xlink="http://www.w3.org/1999/xlink" version="1.1" x="0" y="0" viewBox="5.499 16.625007433093316 90.94800053959338 66.01399256690668" enable-background="new 0 0 100 100" xml:space="preserve" height="165.73021178214708" width="228.3278257304765" class="icon-icon-0" data-fill-palette-color="accent" id="icon-0"><g fill="#dfcff9" data-fill-palette-color="accent"><g fill="#dfcff9" data-fill-palette-color="accent"><path fill-rule="evenodd" clip-rule="evenodd" d="M92.818 23.216V72.1S78.911 68.19 68.578 70.177C59.323 71.956 52.512 76.977 51.363 77.864V78.012L51.267 77.937 51.172 78.012V77.864C50.024 76.977 43.213 71.957 33.961 70.177 23.626 68.189 8.357 72.1 8.357 72.1V23.071L5.499 23.5V76.162S22.139 71.88 33.458 74.058C44.589 76.199 51.314 82.639 51.314 82.639S58.039 76.199 69.169 74.058C80.49 71.879 96.447 76.162 96.447 76.162V23.727C96.448 23.727 95.059 23.492 92.818 23.216M33.121 65.229C42.172 66.968 49.167 72.207 49.167 72.207V24.113S42.135 18.868 33.063 17.124C23.88 15.358 11.884 18.847 11.884 18.847V66.941S23.918 63.459 33.121 65.229M89.284 67.117V19.023S78.288 15.533 69.109 17.3C60.037 19.043 52.774 24.287 52.774 24.287V72.382S59.997 67.145 69.05 65.403C78.252 63.636 89.284 67.117 89.284 67.117" fill="#dfcff9" data-fill-palette-color="accent"></path></g></g></svg></g></svg></g></svg></g><defs></defs></svg><rect width="395.52" height="98.1583138987959" fill="none" stroke="none" visibility="hidden"></rect></g></svg></g></svg>